<?xml version="1.0" ?><!DOCTYPE svg  PUBLIC '-//W3C//DTD SVG 1.1//EN'  'http://www.w3.org/Graphics/SVG/1.1/DTD/svg11.dtd'><svg enable-background="new 0 0 800 800" height="800px" id="GUIDE" version="1.1" viewBox="0 0 800 800" width="800px" xml:space="preserve" xmlns="http://www.w3.org/2000/svg" xmlns:cc="http://creativecommons.org/ns#" xmlns:dc="http://purl.org/dc/elements/1.1/" xmlns:inkscape="http://www.inkscape.org/namespaces/inkscape" xmlns:rdf="http://www.w3.org/1999/02/22-rdf-syntax-ns#" xmlns:sodipodi="http://sodipodi.sourceforge.net/DTD/sodipodi-0.dtd" xmlns:svg="http://www.w3.org/2000/svg" xmlns:xlink="http://www.w3.org/1999/xlink"><path d="M565.952,253.874c-19.32-17.229-41.773-30.986-66.38-40.952c3.264-18.048,12.773-40.641,26.813-63.081  c8.439-13.487,16.983-24.488,24.687-32.808c4.53,1.896,9.499,2.944,14.707,2.944c21.104,0,38.272-17.168,38.272-38.27  s-17.169-38.27-38.272-38.27c-21.1,0-38.268,17.168-38.268,38.27c0,1.655,0.114,3.283,0.322,4.883  c-15.994,16.164-28.689,35.386-33.557,43.165c-8.014,12.812-24.4,41.542-30.988,71.602c-20.244-4.813-41.481-7.303-63.288-7.303  c-21.806,0-43.044,2.491-63.288,7.303c-6.59-30.06-22.975-58.79-30.989-71.602c-4.867-7.778-17.562-27.001-33.556-43.165  c0.208-1.6,0.322-3.228,0.322-4.883c0-21.102-17.168-38.27-38.27-38.27c-21.102,0-38.27,17.168-38.27,38.27  s17.168,38.27,38.27,38.27c5.211,0,10.179-1.049,14.71-2.944c7.702,8.319,16.245,19.321,24.685,32.808  c14.039,22.44,23.552,45.03,26.813,63.081c-24.605,9.966-47.062,23.724-66.382,40.952c-45.043,40.166-69.854,96.625-69.854,158.979  c0,63.978,25.974,149.137,66.167,216.959c48.441,81.733,108.689,126.75,169.642,126.75s121.198-45.017,169.643-126.75  c40.192-67.822,66.167-152.981,66.167-216.959C635.81,350.499,610.999,294.039,565.952,253.874z M537.059,610.502  C496.312,679.258,446.354,718.691,400,718.691c-46.354,0-96.312-39.435-137.059-108.189  c-36.981-62.398-60.874-139.981-60.874-197.648c0-79.901,48.365-143.101,122.146-168.643c1.617-0.312,3.152-0.836,4.591-1.529  c21.803-6.989,45.721-10.75,71.195-10.75c25.475,0,49.392,3.761,71.192,10.75c1.441,0.693,2.977,1.218,4.594,1.529  c73.781,25.542,122.146,88.741,122.146,168.643C597.933,470.521,574.04,548.104,537.059,610.502z" fill="#041C3F"/><path d="M563.388,385.803c-1.379-7.853-7.526-14-15.382-15.377c-0.465-0.082-11.559-2-26.607-2  c-23.537,0-56.241,4.645-78.354,26.755c-36.313,36.31-25.244,102.176-24.756,104.961c1.377,7.854,7.527,14,15.377,15.377  c0.467,0.082,11.564,1.999,26.613,1.999c0.003,0,0.003,0,0.006,0c23.537,0,56.234-4.644,78.348-26.755  C574.941,454.455,563.874,388.589,563.388,385.803z M511.847,463.987c-13.623,13.623-38.151,15.661-51.563,15.661  c-0.003,0-0.003,0-0.006,0c-2.131,0-4.151-0.051-6.036-0.132c-0.702-17.741,1.617-43.591,15.582-57.559  c13.626-13.623,38.16-15.655,51.573-15.655c2.125,0,4.151,0.044,6.035,0.126C528.133,424.172,525.812,450.02,511.847,463.987z" fill="#041C3F"/><path d="M356.956,395.182c-22.112-22.111-54.813-26.755-78.354-26.755c-15.052,0-26.143,1.917-26.61,2  c-7.852,1.376-14,7.524-15.379,15.377c-0.486,2.786-11.553,68.652,24.756,104.966c22.115,22.106,54.816,26.75,78.354,26.75  c15.049,0,26.146-1.916,26.613-1.998c7.85-1.378,14-7.522,15.377-15.378C382.201,497.357,393.271,431.491,356.956,395.182z   M345.763,479.518c-1.89,0.081-3.911,0.132-6.042,0.132c-13.41,0-37.945-2.038-51.571-15.661  c-13.967-13.974-16.283-39.838-15.584-57.559c1.884-0.082,3.908-0.126,6.036-0.126c13.411,0,37.948,2.032,51.571,15.655  C344.146,435.932,346.462,461.797,345.763,479.518z" fill="#041C3F"/><g><path d="M462.966,635.842H337.018c-10.46,0-18.938-8.478-18.938-18.938c0-10.455,8.478-18.934,18.938-18.934   h125.948c10.461,0,18.938,8.479,18.938,18.934C481.904,627.364,473.427,635.842,462.966,635.842z" fill="#041C3F"/></g></svg>