<?xml version="1.0" ?><!DOCTYPE svg  PUBLIC '-//W3C//DTD SVG 1.1//EN'  'http://www.w3.org/Graphics/SVG/1.1/DTD/svg11.dtd'><svg enable-background="new 0 0 75 75" height="75px" version="1.1" viewBox="0 0 75 75" width="75px" xml:space="preserve" xmlns="http://www.w3.org/2000/svg" xmlns:xlink="http://www.w3.org/1999/xlink"><g id="Layer_1"><g><g><g><path d="M16.062,18.781c0.053-3.646,3.019-6.59,6.676-6.59c2.487,0,4.632,1.375,5.784,3.389      c0.297-0.029,0.599-0.045,0.904-0.045c4.932,0,8.929,3.998,8.929,8.93H26.229h-5.734h-7.64      C12.855,22.053,14.145,19.957,16.062,18.781z" fill="#D9F1FF"/></g><g><path d="M19.007,20.535c0.037-2.521,2.087-4.555,4.617-4.555c1.718,0,3.202,0.951,3.996,2.344      c0.206-0.021,0.415-0.031,0.625-0.031c3.41,0,6.174,2.762,6.174,6.172h-8.384h-3.964h-5.28      C16.791,22.797,17.684,21.348,19.007,20.535z" fill="#AEDCFF"/></g><g><path d="M38.375,25.215c-0.007-0.001-0.014,0-0.02,0H12.855c-0.414,0-0.75-0.336-0.75-0.75      c0-2.456,1.197-4.708,3.223-6.102c0.268-3.853,3.509-6.922,7.409-6.922c2.481,0,4.809,1.275,6.183,3.357      c0.167-0.009,0.336-0.013,0.505-0.013c5.277,0,9.581,4.245,9.677,9.5c0.014,0.058,0.021,0.118,0.021,0.18      C39.125,24.879,38.789,25.215,38.375,25.215z M13.653,23.715H37.57c-0.379-4.16-3.888-7.43-8.145-7.43      c-0.281,0-0.558,0.014-0.831,0.042c-0.297,0.029-0.578-0.118-0.725-0.374c-1.063-1.857-3.03-3.011-5.133-3.011      c-3.221,0-5.879,2.625-5.926,5.851c-0.004,0.257-0.139,0.494-0.358,0.628C14.889,20.38,13.877,21.95,13.653,23.715z" fill="#093260"/></g></g><g><g><g><polygon fill="#C6621E" points="42.284,68.742 32.589,68.742 34.204,58.25 40.668,58.25      "/></g><g><polygon fill="#A0490E" points="39.428,68.742 35.445,68.742 36.108,58.25 38.765,58.25      "/></g><g><g><g><path d="M49.464,24.465c-1.35-0.463-2.634-1.469-3.688-3.045L37.438,6.258L29.099,21.42         c-1.054,1.576-2.338,2.582-3.688,3.045H49.464z" fill="#0CAFAF"/></g></g><g><path d="M37.438,6.258L29.099,21.42c-1.054,1.576-2.338,2.582-3.688,3.045h12.026V6.258z" fill="#1BC1A9"/></g><g><path d="M50.892,35.277l-5.947-10.812H29.931l-5.947,10.812c-1.698,2.545-3.771,4.164-5.946,4.912h38.801        C54.662,39.441,52.59,37.822,50.892,35.277z" fill="#1BC1A9"/></g><g><g><path d="M55.885,51.514l-6.229-11.324H25.218l-6.229,11.324c-2.329,3.488-5.171,5.711-8.154,6.736h53.204         C61.056,57.225,58.214,55.002,55.885,51.514z" fill="#1BC1A9"/></g></g></g><g><g><g><path d="M44.771,24.465c-0.823-0.463-1.606-1.469-2.249-3.045L37.438,6.258L32.351,21.42         c-0.643,1.576-1.426,2.582-2.249,3.045H44.771z" fill="#109BAD"/></g></g><g><path d="M32.351,21.42c-0.643,1.576-1.426,2.582-2.249,3.045h7.336V6.258L32.351,21.42z" fill="#0CAFAF"/></g><g><path d="M45.642,35.277l-3.625-10.812h-9.158l-3.627,10.812c-1.035,2.545-2.299,4.164-3.626,4.912h23.665        C47.942,39.441,46.68,37.822,45.642,35.277z" fill="#0CAFAF"/></g><g><path d="M50.892,35.277l-5.947-10.812H30.479l-0.378,0.379l15.346,15.346h11.391        C54.662,39.441,52.59,37.822,50.892,35.277z" fill="#0CAFAF"/></g><g><path d="M45.642,35.277l-3.625-10.812h-9.158l-0.787,2.35l13.376,13.375h3.823        C47.942,39.441,46.68,37.822,45.642,35.277z" fill="#109BAD"/></g><g><g><path d="M48.688,51.514l-3.797-11.324H29.984l-3.8,11.324c-1.421,3.488-3.152,5.711-4.974,6.736h32.45         C51.843,57.225,50.109,55.002,48.688,51.514z" fill="#0CAFAF"/></g></g><g><path d="M55.885,51.514l-6.229-11.324H26.443l-0.838,0.838L42.827,58.25h21.212        C61.056,57.225,58.214,55.002,55.885,51.514z" fill="#0CAFAF"/></g><g><path d="M48.688,51.514l-3.797-11.324H29.984l-1.311,3.908L42.827,58.25h10.834        C51.843,57.225,50.109,55.002,48.688,51.514z" fill="#109BAD"/></g></g><g><g><path d="M49.464,25.215H25.411c-0.367,0-0.68-0.265-0.74-0.626c-0.061-0.362,0.149-0.714,0.497-0.833        c1.245-0.427,2.389-1.379,3.307-2.752L36.78,5.896c0.264-0.479,1.051-0.479,1.314,0l8.339,15.162        c0.884,1.318,2.028,2.27,3.273,2.697c0.347,0.119,0.557,0.471,0.497,0.833C50.144,24.95,49.831,25.215,49.464,25.215z         M28.099,23.715h18.673c-0.59-0.523-1.134-1.153-1.619-1.878L37.438,7.814l-7.682,13.967        C29.253,22.536,28.697,23.182,28.099,23.715z" fill="#093260"/></g></g><g><path d="M56.838,40.939H18.037c-0.367,0-0.679-0.265-0.74-0.626s0.149-0.714,0.496-0.833       c2.108-0.725,4.033-2.322,5.566-4.619l5.914-10.757c0.132-0.24,0.384-0.389,0.657-0.389h15.014       c0.273,0,0.525,0.149,0.657,0.389l5.947,10.812c1.5,2.242,3.424,3.839,5.533,4.564c0.347,0.119,0.557,0.472,0.496,0.833       S57.205,40.939,56.838,40.939z M21.068,39.439h32.735c-1.313-0.944-2.509-2.207-3.536-3.746l-5.767-10.479H30.374       l-5.733,10.424C23.592,37.212,22.387,38.489,21.068,39.439z" fill="#093260"/></g><g><g><path d="M64.039,59H10.835c-0.367,0-0.679-0.265-0.74-0.626s0.149-0.714,0.496-0.833        c2.948-1.013,5.636-3.241,7.774-6.443l6.195-11.269c0.132-0.24,0.384-0.389,0.657-0.389h24.438        c0.273,0,0.525,0.149,0.657,0.389l6.229,11.324c2.104,3.147,4.793,5.375,7.741,6.388c0.347,0.119,0.557,0.472,0.496,0.833        S64.406,59,64.039,59z M14.085,57.5h46.701c-2.067-1.314-3.942-3.199-5.525-5.57l-6.048-10.991H25.661l-6.015,10.936        C18.04,54.285,16.156,56.182,14.085,57.5z" fill="#093260"/></g></g><g><path d="M42.304,69.492c-0.006,0-0.013-0.001-0.02,0h-9.695c-0.219,0-0.427-0.096-0.569-0.262       s-0.205-0.386-0.172-0.603l1.615-10.492c0.056-0.366,0.371-0.636,0.741-0.636h6.464c0.37,0,0.685,0.27,0.741,0.636L43,68.461       c0.035,0.087,0.055,0.182,0.055,0.281C43.054,69.156,42.718,69.492,42.304,69.492z M33.463,67.992h7.946L40.024,59h-5.177       L33.463,67.992z" fill="#093260"/></g><g><path d="M47.004,69.492H27.869c-0.414,0-0.75-0.336-0.75-0.75s0.336-0.75,0.75-0.75h19.135       c0.414,0,0.75,0.336,0.75,0.75S47.418,69.492,47.004,69.492z" fill="#093260"/></g></g><g><path d="M36.354,62.518h-2.692c-0.414,0-0.75-0.336-0.75-0.75s0.336-0.75,0.75-0.75h2.692      c0.414,0,0.75,0.336,0.75,0.75S36.769,62.518,36.354,62.518z" fill="#093260"/></g><g><path d="M41.168,65.201h-2.692c-0.414,0-0.75-0.336-0.75-0.75s0.336-0.75,0.75-0.75h2.692      c0.414,0,0.75,0.336,0.75,0.75S41.582,65.201,41.168,65.201z" fill="#093260"/></g><g><path d="M35.835,66.951h-2.692c-0.414,0-0.75-0.336-0.75-0.75s0.336-0.75,0.75-0.75h2.692      c0.414,0,0.75,0.336,0.75,0.75S36.249,66.951,35.835,66.951z" fill="#093260"/></g></g><g><g><path d="M61.211,34.951c-0.049-3.359-2.781-6.07-6.151-6.07c-2.291,0-4.268,1.268-5.329,3.123      c-0.273-0.027-0.552-0.043-0.833-0.043c-4.543,0-8.227,3.684-8.227,8.229h11.172h5.283h7.039      C64.165,37.967,62.977,36.035,61.211,34.951z" fill="#D9F1FF"/></g><g><path d="M58.497,36.568c-0.034-2.322-1.923-4.197-4.254-4.197c-1.583,0-2.95,0.877-3.683,2.16      c-0.189-0.02-0.382-0.029-0.575-0.029c-3.143,0-5.688,2.545-5.688,5.688h7.725h3.652h4.865      C60.539,38.652,59.717,37.318,58.497,36.568z" fill="#AEDCFF"/></g><g><path d="M64.165,40.939H40.671c-0.414,0-0.75-0.336-0.75-0.75c0-4.951,4.027-8.979,8.977-8.979      c0.146,0,0.291,0.004,0.436,0.011c1.28-1.918,3.432-3.091,5.727-3.091c3.615,0,6.621,2.836,6.883,6.403      c1.869,1.297,2.972,3.383,2.972,5.656C64.915,40.604,64.579,40.939,64.165,40.939z M41.458,39.439h21.905      c-0.221-1.582-1.137-2.985-2.544-3.849c-0.219-0.134-0.354-0.372-0.357-0.628c-0.042-2.939-2.466-5.331-5.401-5.331      c-1.917,0-3.709,1.052-4.678,2.746c-0.146,0.256-0.432,0.407-0.726,0.374c-0.249-0.025-0.502-0.039-0.758-0.039      C45.028,32.711,41.835,35.667,41.458,39.439z" fill="#093260"/></g></g></g></g></svg>